<svg width="241" height="109" viewBox="0 0 241 109" fill="none" xmlns="http://www.w3.org/2000/svg">
<path d="M97.9219 11.4167C98.0214 10.9193 98.6183 10.5214 99.7126 10.2229C100.807 9.92446 102.15 9.67575 103.742 9.47678C105.433 9.27781 107.323 9.12859 109.412 9.0291C111.501 8.92962 113.64 8.87988 115.829 8.87988C119.808 8.87988 123.29 9.02911 126.275 9.32756C129.359 9.62601 131 10.3224 131.199 11.4167L141.048 89.6105C141.545 92.9929 142.689 95.7784 144.48 97.9671C146.271 100.156 148.758 101.648 151.941 102.444C152.737 102.643 153.284 103.041 153.583 103.638C153.981 104.135 154.18 104.682 154.18 105.279C154.18 106.075 153.931 106.722 153.434 107.219C152.936 107.716 152.24 107.965 151.344 107.965H104.488C103.592 107.965 102.896 107.716 102.399 107.219C102.001 106.722 101.802 106.125 101.802 105.428C101.802 104.831 102.001 104.235 102.399 103.638C102.896 103.041 103.543 102.643 104.339 102.444C107.224 101.946 109.213 100.852 110.308 99.1609C111.501 97.4697 112.098 95.0821 112.098 91.9981C112.098 91.0033 111.999 89.9587 111.8 88.8644C111.7 87.77 111.601 86.6757 111.501 85.5814L106.577 25.4438C106.577 25.1454 106.527 24.9962 106.428 24.9962C106.229 24.9962 106.129 25.1454 106.129 25.4438L81.9549 106.771C81.8554 107.07 81.3083 107.368 80.3134 107.667C79.3186 107.866 78.1248 108.065 76.732 108.264C75.3392 108.562 73.7973 108.761 72.106 108.86C70.5143 108.96 69.0718 109.01 67.7785 109.01C66.3858 109.01 64.8935 108.96 63.3018 108.86C61.7101 108.761 60.2178 108.612 58.825 108.413C57.4323 108.214 56.2385 107.965 55.2436 107.667C54.3483 107.368 53.8509 107.02 53.7514 106.622L33.9045 25.4438C33.7055 25.1454 33.606 24.9962 33.606 24.9962C33.4071 24.9962 33.3076 25.1454 33.3076 25.4438C33.0091 28.0304 32.7107 30.617 32.4122 33.2035C32.1138 35.7901 31.7656 38.3766 31.3677 40.9632L25.3987 87.5213C25.1002 89.511 24.951 91.6002 24.951 93.7888C24.951 96.9722 25.6971 99.1609 27.1894 100.355C28.7811 101.548 30.8205 102.245 33.3076 102.444C34.9988 102.742 35.8444 103.687 35.8444 105.279C35.8444 106.075 35.5957 106.722 35.0983 107.219C34.7004 107.716 34.0537 107.965 33.1584 107.965H3.01496C1.12478 107.965 0.179688 107.12 0.179688 105.428C0.179688 104.732 0.428395 104.135 0.925811 103.638C1.32374 103.041 1.97039 102.643 2.86573 102.444C5.75075 101.747 8.03886 100.305 9.73007 98.1163C11.4213 95.9277 12.5156 93.0924 13.013 89.6105L23.7572 11.4167C23.8567 10.9193 24.4536 10.5214 25.5479 10.2229C26.6422 9.92446 28.035 9.67575 29.7262 9.47678C31.5169 9.27781 33.5066 9.12859 35.6952 9.0291C37.8838 8.92962 40.1222 8.87988 42.4103 8.87988C46.1907 8.87988 49.5234 9.02911 52.4084 9.32756C55.3929 9.62601 56.9846 10.3224 57.1836 11.4167L75.0905 88.1182C75.19 88.6157 75.389 88.8644 75.6874 88.8644C75.9859 88.8644 76.1849 88.6157 76.2843 88.1182L97.9219 11.4167Z" fill="white"/>
<circle cx="176.5" cy="22.5" r="22.5" fill="white"/>
<circle cx="186.5" cy="22.5" r="22.5" fill="#6B6B6B"/>
<circle cx="196.5" cy="22.5" r="22.5" fill="#424242"/>
</svg>
