<svg xmlns="http://www.w3.org/2000/svg" width="297.255" height="65.77" viewBox="0 0 297.255 65.77">
  <g id="Logo_Finexus_Header" data-name="Logo Finexus Header" transform="translate(-1.52 1025.042)">
    <rect id="Rectángulo_768" data-name="Rectángulo 768" width="297.255" height="65.77" transform="translate(1.519 -1025.042)" fill="none"/>
    <g id="Grupo_621" data-name="Grupo 621" transform="translate(30.158 -1007.394)">
      <path id="Trazado_2299" data-name="Trazado 2299" d="M487.873-901.078a2.305,2.305,0,0,1,2.278-2.278,2.3,2.3,0,0,1,2.278,2.278,2.306,2.306,0,0,1-2.278,2.278A2.306,2.306,0,0,1,487.873-901.078Z" transform="translate(-344.77 928.678)" fill="#4bc1f0"/>
      <path id="Trazado_2300" data-name="Trazado 2300" d="M506.675-923.642a6.907,6.907,0,0,1,7.2-7.115,6.322,6.322,0,0,1,5.372,2.446l-2.334,2.195a3.3,3.3,0,0,0-2.869-1.463,3.631,3.631,0,0,0-3.685,3.938,3.654,3.654,0,0,0,3.685,3.966,3.384,3.384,0,0,0,2.869-1.49l2.334,2.194a6.329,6.329,0,0,1-5.372,2.475A6.914,6.914,0,0,1,506.675-923.642Z" transform="translate(-356.933 946.403)" fill="#4bc1f0"/>
      <path id="Trazado_2301" data-name="Trazado 2301" d="M547.382-923.642a6.881,6.881,0,0,1,7.173-7.115,6.887,6.887,0,0,1,7.2,7.115,6.91,6.91,0,0,1-7.2,7.145A6.9,6.9,0,0,1,547.382-923.642Zm10.66,0c0-2.108-1.237-3.938-3.487-3.938-2.222,0-3.46,1.829-3.46,3.938,0,2.138,1.238,3.966,3.46,3.966C556.805-919.676,558.042-921.5,558.042-923.642Z" transform="translate(-383.265 946.403)" fill="#4bc1f0"/>
      <path id="Trazado_2302" data-name="Trazado 2302" d="M612.549-916.835v-8.578c0-1.266-.563-2.167-2.025-2.167A3.6,3.6,0,0,0,607.712-926v9.169h-3.6v-8.578c0-1.266-.563-2.167-2.025-2.167A3.7,3.7,0,0,0,599.274-926v9.169H595.7v-13.585h3.572v1.743a6.086,6.086,0,0,1,4.444-2.081,3.584,3.584,0,0,1,3.768,2.446,5.821,5.821,0,0,1,4.669-2.446c2.5,0,3.994,1.322,3.994,4.106v9.816Z" transform="translate(-414.522 946.403)" fill="#4bc1f0"/>
      <path id="Trazado_2303" data-name="Trazado 2303" d="M82.621-944v-28.077a.393.393,0,0,1,.393-.393H101.03a.168.168,0,0,1,.168.168v4.892a.168.168,0,0,1-.168.168H88.58v4.877H99.325a.168.168,0,0,1,.168.168v4.753a.168.168,0,0,1-.168.168H88.58V-944a.168.168,0,0,1-.168.168H82.789A.168.168,0,0,1,82.621-944Z" transform="translate(-82.621 973.384)" fill="#1c3f89"/>
      <path id="Trazado_2304" data-name="Trazado 2304" d="M141.945-971.579a3.133,3.133,0,0,1,3.137-3.137,3.142,3.142,0,0,1,3.179,3.137,3.178,3.178,0,0,1-3.179,3.179A3.169,3.169,0,0,1,141.945-971.579Zm.5,26.128v-19.866a.169.169,0,0,1,.168-.168h4.975a.169.169,0,0,1,.168.168v19.866a.169.169,0,0,1-.168.168h-4.975A.169.169,0,0,1,142.447-945.451Z" transform="translate(-120.996 974.839)" fill="#1c3f89"/>
      <path id="Trazado_2305" data-name="Trazado 2305" d="M181.928-929.292a.169.169,0,0,1-.168-.168V-941.5c0-2.8-1.464-3.764-3.722-3.764a5.906,5.906,0,0,0-4.6,2.342v13.467a.169.169,0,0,1-.168.168h-4.975a.169.169,0,0,1-.168-.168V-949.27a.225.225,0,0,1,.225-.225h5.032a.056.056,0,0,1,.056.056v2.537A9.447,9.447,0,0,1,180.5-950c4.475,0,6.608,2.51,6.608,6.441v14.094a.168.168,0,0,1-.168.168Z" transform="translate(-137.931 958.848)" fill="#1c3f89"/>
      <path id="Trazado_2306" data-name="Trazado 2306" d="M231.065-939.414A10.307,10.307,0,0,1,241.522-950c6.065,0,10.122,4.517,10.122,11.084v1.086a.168.168,0,0,1-.168.168H236.628c.377,2.468,2.384,4.517,5.814,4.517a8.828,8.828,0,0,0,4.9-1.581.557.557,0,0,1,.8.13l1.951,2.875a.172.172,0,0,1-.027.224,12.7,12.7,0,0,1-8.212,2.7C235.707-928.79,231.065-932.93,231.065-939.414Zm10.457-6.232a4.659,4.659,0,0,0-4.936,4.308h9.954A4.629,4.629,0,0,0,241.522-945.646Z" transform="translate(-178.646 958.848)" fill="#1c3f89"/>
      <path id="Trazado_2307" data-name="Trazado 2307" d="M382.268-928.429v-2.5a9.607,9.607,0,0,1-7.111,3.053c-4.433,0-6.524-2.426-6.524-6.358v-14.178a.168.168,0,0,1,.168-.168h4.975a.168.168,0,0,1,.168.168v12.087c0,2.8,1.463,3.722,3.723,3.722a5.947,5.947,0,0,0,4.6-2.3v-13.509a.168.168,0,0,1,.168-.168h4.975a.168.168,0,0,1,.168.168V-928.6a.224.224,0,0,1-.224.225h-5.031A.056.056,0,0,1,382.268-928.429Z" transform="translate(-267.636 957.929)" fill="#1c3f89"/>
      <path id="Trazado_2308" data-name="Trazado 2308" d="M429.832-932.048l2.123-3.553a.164.164,0,0,1,.252-.039,11.506,11.506,0,0,0,6.837,2.667c2.3,0,3.388-.879,3.388-2.133,0-3.3-11.962-.586-11.962-8.532,0-3.389,2.928-6.358,8.282-6.358a12.879,12.879,0,0,1,8,2.67.171.171,0,0,1,.043.219l-1.953,3.447a.164.164,0,0,1-.259.037,8.81,8.81,0,0,0-5.829-2.191c-1.924,0-3.179.837-3.179,1.966,0,2.969,12,.46,12,8.616,0,3.722-3.179,6.441-8.784,6.441a13.681,13.681,0,0,1-8.93-3.043A.171.171,0,0,1,429.832-932.048Z" transform="translate(-307.208 958.848)" fill="#1c3f89"/>
      <g id="Grupo_620" data-name="Grupo 620" transform="translate(73.859)">
        <path id="Rectángulo_769" data-name="Rectángulo 769" d="M0,0H5.49a0,0,0,0,1,0,0V11.921a.684.684,0,0,1-.684.684H.684A.684.684,0,0,1,0,11.921V0A0,0,0,0,1,0,0Z" transform="translate(8.913 17.265) rotate(45)" fill="#1c3f89"/>
        <path id="Rectángulo_770" data-name="Rectángulo 770" d="M.684,0H4.806A.684.684,0,0,1,5.49.684V12.537a0,0,0,0,1,0,0H0a0,0,0,0,1,0,0V.684A.684.684,0,0,1,.684,0Z" transform="translate(24.858 26.179) rotate(135)" fill="#1c3f89"/>
        <g id="Grupo_619" data-name="Grupo 619" transform="translate(1.969)">
          <g id="Grupo_618" data-name="Grupo 618">
            <path id="Trazado_2309" data-name="Trazado 2309" d="M307.813-953.551l-10.406-10.407a.168.168,0,0,1,.034-.264l2.425-1.419a3.956,3.956,0,0,1,4.8.617l3.033,3.033a.168.168,0,0,0,.238,0l13.025-13.025a.168.168,0,0,1,.259.025l.757,1.126a5.386,5.386,0,0,1-.661,6.814Z" transform="translate(-297.357 975.065)" fill="#4bc1f0"/>
          </g>
        </g>
      </g>
      <path id="Trazado_2310" data-name="Trazado 2310" d="M662.125-901.078a2.305,2.305,0,0,1,2.278-2.278,2.305,2.305,0,0,1,2.278,2.278A2.306,2.306,0,0,1,664.4-898.8,2.306,2.306,0,0,1,662.125-901.078Z" transform="translate(-457.49 928.678)" fill="#4bc1f0"/>
      <path id="Trazado_2311" data-name="Trazado 2311" d="M681.426-923.642a6.907,6.907,0,0,1,7.2-7.115A6.321,6.321,0,0,1,694-928.311l-2.334,2.195a3.3,3.3,0,0,0-2.869-1.463,3.631,3.631,0,0,0-3.685,3.938,3.654,3.654,0,0,0,3.685,3.966,3.384,3.384,0,0,0,2.869-1.49L694-918.972a6.329,6.329,0,0,1-5.371,2.475A6.913,6.913,0,0,1,681.426-923.642Z" transform="translate(-469.975 946.403)" fill="#4bc1f0"/>
      <path id="Trazado_2312" data-name="Trazado 2312" d="M722.832-923.642A6.88,6.88,0,0,1,730-930.757a6.887,6.887,0,0,1,7.2,7.115A6.91,6.91,0,0,1,730-916.5,6.9,6.9,0,0,1,722.832-923.642Zm10.659,0c0-2.108-1.237-3.938-3.488-3.938-2.221,0-3.46,1.829-3.46,3.938,0,2.138,1.238,3.966,3.46,3.966C732.254-919.676,733.491-921.5,733.491-923.642Z" transform="translate(-496.76 946.403)" fill="#4bc1f0"/>
    </g>
  </g>
</svg>
