<?xml version="1.0" standalone="no"?>
<!DOCTYPE svg PUBLIC "-//W3C//DTD SVG 20010904//EN"
 "http://www.w3.org/TR/2001/REC-SVG-20010904/DTD/svg10.dtd">
<svg version="1.0" xmlns="http://www.w3.org/2000/svg"
 width="150.000000pt" height="113.000000pt" viewBox="0 0 150.000000 113.000000"
 preserveAspectRatio="xMidYMid meet">

<g transform="translate(0.000000,113.000000) scale(0.100000,-0.100000)"
fill="#000000" stroke="none">
<path d="M415 1015 c-5 -2 -22 -6 -37 -9 -30 -7 -39 -26 -12 -26 27 0 81 -64
94 -111 20 -74 -4 -309 -38 -364 -3 -5 -12 29 -18 77 -22 151 -91 268 -157
268 -32 0 -87 -32 -105 -61 -9 -14 -8 -16 8 -12 36 9 70 -7 96 -46 43 -66 55
-124 64 -313 5 -118 12 -183 20 -193 73 -88 233 214 270 512 12 92 -1 183 -32
226 -31 43 -105 68 -153 52z"/>
<path d="M1302 1003 c-24 -48 -20 -170 9 -285 14 -53 69 -66 69 -16 0 12 10
73 21 136 l22 115 -36 34 c-41 36 -72 42 -85 16z"/>
<path d="M1065 874 c-13 -14 -15 -29 -10 -78 4 -33 2 -96 -4 -138 -21 -148
-68 -240 -145 -284 -34 -19 -35 -22 -19 -36 73 -64 146 -46 183 43 13 30 15
31 59 24 25 -4 49 -10 53 -13 12 -11 -9 -131 -27 -159 -10 -14 -35 -32 -56
-41 -21 -8 -39 -19 -39 -23 0 -14 72 -31 112 -26 73 10 107 61 115 173 6 70 7
75 32 80 133 27 181 77 135 142 l-16 23 -20 -26 c-23 -29 -87 -65 -117 -65
-14 0 -22 9 -26 28 -15 68 -59 202 -86 258 -50 106 -94 148 -124 118z m99
-320 c20 -77 20 -74 -6 -74 -46 0 -50 11 -37 84 7 36 16 63 20 59 4 -5 15 -36
23 -69z"/>
<path d="M880 830 c-12 -8 -10 -14 14 -39 52 -54 47 -164 -10 -253 -35 -54
-48 -49 -40 15 14 119 17 173 8 186 -12 17 -57 18 -77 1 -12 -10 -12 -15 1
-36 15 -22 15 -30 0 -95 -20 -89 -20 -152 -1 -189 47 -91 152 0 210 183 30 93
34 197 9 221 -17 18 -90 22 -114 6z"/>
<path d="M680 810 c-14 -26 -9 -72 7 -77 20 -7 65 45 61 70 -4 31 -52 36 -68
7z"/>
<path d="M667 688 c-18 -14 -41 -113 -52 -233 -9 -85 3 -101 57 -87 32 8 33
10 30 53 -2 25 4 85 12 134 22 127 21 145 -7 145 -13 0 -31 -6 -40 -12z"/>
<path d="M122 674 c-26 -18 -29 -56 -6 -78 19 -20 24 -20 52 0 24 17 30 62 10
82 -16 16 -29 15 -56 -4z"/>
<path d="M1317 622 c-22 -24 -22 -45 1 -65 44 -40 95 -2 70 51 -16 33 -48 39
-71 14z"/>
<path d="M120 536 c-18 -22 -43 -184 -38 -250 7 -90 42 -105 107 -45 23 21 30
34 26 51 -7 31 -45 240 -45 250 0 14 -37 9 -50 -6z"/>
</g>
</svg>
