<svg width="578" height="101" viewBox="0 0 578 101" fill="none" xmlns="http://www.w3.org/2000/svg">
<path d="M67.45 28.68C65.43 26.82 63.09 25.51 60.43 24.76C57.77 24.01 55.15 23.63 52.58 23.63C48.41 23.63 44.63 24.45 41.24 26.09C37.84 27.73 34.89 29.93 32.37 32.67C29.84 35.42 27.8 38.48 26.23 41.85C24.66 45.22 23.58 48.59 22.99 51.96C22.33 55.68 22.27 59.27 22.82 62.73C23.36 66.19 24.48 69.25 26.19 71.91C27.89 74.57 30.16 76.68 32.99 78.23C35.82 79.78 39.09 80.56 42.82 80.56C45.48 80.56 48.26 80.12 51.17 79.23C54.07 78.34 56.87 76.95 59.56 75.04C61.75 73.48 63.64 71.53 65.24 69.18C65.85 68.28 67.06 68.05 67.97 68.65L80.62 76.97C81.56 77.59 81.79 78.84 81.17 79.77C78.6 83.64 75.2 87.01 70.98 89.87C66.14 93.15 60.89 95.66 55.23 97.38C49.56 99.11 44.11 99.97 38.88 99.97C32.05 99.97 26.03 98.57 20.8 95.78C15.57 92.99 11.31 89.26 8.00997 84.61C4.70997 79.96 2.43997 74.72 1.19997 68.92C-0.0400313 63.11 -0.120026 57.2 0.939974 51.17C1.95997 45.41 4.01997 39.75 7.11997 34.21C10.23 28.67 14.22 23.64 19.09 19.11C23.97 14.59 29.57 10.98 35.9 8.26999C42.23 5.56999 49.12 4.20999 56.56 4.20999C65.43 4.20999 72.78 6.11999 78.63 9.92999" fill="#155EE9"/>
<path d="M138.66 46.08C138.49 47.02 137.69 47.69 136.73 47.72C132.2 47.88 127.95 48.69 123.97 50.15C119.51 51.79 116.07 54.21 113.65 57.4L106.55 97.65C106.38 98.6 105.55 99.3 104.59 99.3H84.98L96.86 31.92C97.03 30.97 97.86 30.27 98.82 30.27H114.32C115.56 30.27 116.5 31.39 116.28 32.61L114.35 43.57C117.57 38.87 121.32 35.19 125.61 32.53C129.89 29.87 134.12 28.5 138.31 28.41C138.61 28.41 139.01 28.41 139.43 28.42C140.65 28.44 141.56 29.56 141.35 30.76L138.65 46.08H138.66Z" fill="#155EE9"/>
<path d="M168.14 100.63C162.2 100.63 157.09 99.69 152.81 97.8C148.53 95.92 145.06 93.35 142.4 90.11C139.74 86.87 137.93 83.12 137 78.87C136.06 74.62 136.01 70.17 136.83 65.52C138 58.9 140.54 52.87 144.47 47.43C148.4 41.99 153.45 37.59 159.63 34.24C165.81 30.89 172.84 29.21 180.73 29.21C188.62 29.21 195.05 30.87 200 34.19C204.95 37.51 208.42 41.85 210.4 47.22C212.38 52.59 212.81 58.42 211.71 64.7C211.49 65.92 211.22 67.12 210.88 68.3C210.71 68.88 210.56 69.42 210.41 69.93C210.17 70.79 209.38 71.38 208.49 71.38H158.4C158.13 74.4 158.55 76.94 159.65 79.01C160.75 81.08 162.35 82.65 164.47 83.73C166.59 84.81 168.93 85.35 171.5 85.35C174.69 85.35 177.82 84.6 180.87 83.09C183.47 81.81 185.51 80.15 187 78.1C187.49 77.43 188.35 77.16 189.14 77.39L202.21 81.23C203.56 81.63 204.1 83.27 203.23 84.38C201.12 87.07 198.62 89.5 195.71 91.67C191.98 94.46 187.78 96.66 183.11 98.25C178.44 99.85 173.44 100.64 168.12 100.64L168.14 100.63ZM160.17 58.34H190.49C190.63 55.55 190.21 53.12 189.25 51.04C188.29 48.97 186.79 47.36 184.78 46.22C182.76 45.08 180.43 44.51 177.77 44.51C175.11 44.51 172.46 45.08 170.09 46.22C167.72 47.36 165.68 48.97 163.99 51.04C162.3 53.11 161.02 55.55 160.18 58.34H160.17Z" fill="#155EE9"/>
<path d="M214.75 64.86C215.94 58.13 218.33 52.09 221.94 46.71C225.55 41.34 229.93 37.08 235.1 33.93C240.26 30.79 245.86 29.21 251.89 29.21C256.76 29.21 260.99 30.39 264.57 32.73C268.14 35.08 270.61 38.16 271.98 41.97L278.7 3.84998C278.87 2.89998 279.7 2.19998 280.66 2.19998H297.89C299.13 2.19998 300.07 3.31998 299.85 4.53998L287.32 75.61C286.94 77.74 287.04 79.22 287.6 80.07C287.88 80.49 288.25 80.7 288.82 80.73C290.03 80.8 290.95 81.83 290.73 83.02L287.93 97.92C287.78 98.74 287.13 99.38 286.31 99.52C283.09 100.07 280.47 100.34 278.44 100.34C274.8 100.34 272 99.54 270.02 97.95C268.04 96.35 267.03 94.14 267 91.3L267.23 87.71C263.98 92.06 260.04 95.29 255.41 97.42C250.78 99.55 246.11 100.61 241.41 100.61C236.71 100.61 232.37 99.71 228.65 97.92C224.93 96.13 221.87 93.62 219.47 90.39C217.07 87.16 215.46 83.36 214.63 78.99C213.8 74.62 213.84 69.9 214.73 64.84L214.75 64.86ZM266.6 73.25L269.1 59.05C268.62 56.73 267.72 54.7 266.38 52.98C265.04 51.26 263.42 49.88 261.52 48.85C259.62 47.82 257.6 47.3 255.48 47.3C253.17 47.3 250.98 47.77 248.91 48.72C246.83 49.67 244.94 50.98 243.23 52.66C241.51 54.34 240.09 56.25 238.96 58.41C237.83 60.56 237.05 62.84 236.62 65.25C236.18 67.75 236.19 70.05 236.67 72.16C237.14 74.27 237.99 76.12 239.21 77.71C240.44 79.3 241.99 80.53 243.88 81.39C245.77 82.25 247.91 82.68 250.3 82.68C251.81 82.68 253.31 82.44 254.82 81.97C256.32 81.5 257.78 80.87 259.21 80.1C260.63 79.32 261.98 78.34 263.26 77.13C264.54 75.92 265.65 74.63 266.6 73.25Z" fill="#155EE9"/>
<path d="M297.4 96.96L309.01 31.13C309.18 30.18 310.01 29.48 310.97 29.48H328.2C329.44 29.48 330.38 30.6 330.16 31.82L318.55 97.65C318.38 98.6 317.55 99.3 316.59 99.3H299.36C298.12 99.3 297.18 98.18 297.4 96.96ZM311.11 19.16L313.81 3.86999C313.98 2.91999 314.81 2.21999 315.77 2.21999H333C334.24 2.21999 335.18 3.33999 334.96 4.55999L332.26 19.85C332.09 20.8 331.26 21.5 330.3 21.5H313.07C311.83 21.5 310.89 20.38 311.11 19.16Z" fill="#155EE9"/>
<path d="M75.72 8.23999C76.42 8.57999 77.12 8.93999 77.82 9.30999L79.63 6.07999L87.83 27.01L65.88 31.78L67.49 28.59" fill="#155EE9"/>
<path d="M501.85 99.3H481.12L482.9 89.19C477.32 95.58 468.66 100.1 458.84 100.1C441.94 100.1 432.63 88.26 436.13 68.44L443.49 26.72C443.66 25.77 444.49 25.07 445.45 25.07H463.67C464.91 25.07 465.85 26.19 465.63 27.41L458.94 65.37C457.16 75.48 461.81 81.07 470.19 81.07C478.57 81.07 485.32 75.48 487.11 65.37L493.93 26.71C494.1 25.76 494.93 25.06 495.89 25.06H514.24C515.48 25.06 516.42 26.18 516.2 27.4L503.82 97.64C503.65 98.59 502.82 99.29 501.86 99.29L501.85 99.3Z" fill="#162683"/>
<path d="M538.71 100.36C520.1 100.36 509.09 90.32 509.4 76.93C509.43 75.84 510.31 74.95 511.4 74.95H529.72C530.7 74.95 531.58 75.65 531.69 76.62C532.18 80.87 535.93 83.6 541.4 83.6C547.16 83.6 550.64 80.94 551.23 77.61C553.34 65.64 511.99 74.28 516.8 47.02C519.03 34.38 531.47 24.01 550.59 24.01C568.59 24.01 577.25 33.7 577.01 47.3C576.99 48.4 576.1 49.28 575.01 49.28H558.12C557.09 49.28 556.28 48.49 556.15 47.47C555.61 43.45 552.46 40.9 546.96 40.9C541.46 40.9 538.46 43.03 537.83 46.62C535.74 58.46 576.78 50.08 572.3 77.75C570.02 90.65 557.05 100.36 538.71 100.36Z" fill="#162683"/>
<path d="M374.24 66.32C374.24 67.07 374.24 68.28 374.24 68.28L359.79 56.25L374.23 45.01L374.25 47.7H374.81C383.85 47.69 388.51 43.16 389.77 35.98C391.04 28.8 387.98 24.28 378.93 24.28H366.56L362.43 47.72L352.05 55.87L359.71 63.15L359.61 63.71L353.63 97.65C353.46 98.6 352.63 99.3 351.67 99.3H332.98C331.74 99.3 330.8 98.18 331.02 96.96L346.78 7.57999C346.95 6.62999 347.78 5.92999 348.74 5.92999H383.91C406.79 5.92999 415.95 18.83 412.93 35.99C410.24 51.22 397.51 65.41 374.29 65.77H374.26V66.33L374.24 66.32Z" fill="#162683"/>
<path d="M423.69 0.859985H442.38C443.62 0.859985 444.56 1.97998 444.34 3.19999L427.69 97.63C427.52 98.58 426.69 99.28 425.73 99.28H407.04C405.8 99.28 404.86 98.16 405.08 96.94L421.73 2.50999C421.9 1.55999 422.73 0.859985 423.69 0.859985Z" fill="#162683"/>
</svg>
